<?xml version="1.0" encoding="UTF-8" standalone="no"?>
<svg width="10px" height="9px" viewBox="0 0 10 9" version="1.1" xmlns="http://www.w3.org/2000/svg" xmlns:xlink="http://www.w3.org/1999/xlink">
    <!-- Generator: sketchtool 50.2 (55047) - http://www.bohemiancoding.com/sketch -->
    <title>AB38DA5E-87D8-42D7-B08F-7EE47E8CA220</title>
    <desc>Created with sketchtool.</desc>
    <defs></defs>
    <g id="2019-MVP" stroke="none" stroke-width="1" fill="none" fill-rule="evenodd" opacity="0.699999988">
        <g id="Dashboard-MVP---Desktop" transform="translate(-306.000000, -1654.000000)" fill="#FFFFFF" fill-rule="nonzero">
            <g id="New-Members-Near-You-Copy" transform="translate(105.000000, 974.000000)">
                <g id="Row-Copy" transform="translate(0.000000, 404.000000)">
                    <g id="Entry">
                        <g id="1">
                            <g id="Group" transform="translate(0.000000, 172.000000)">
                                <g id="Icon/Photo" transform="translate(201.000000, 104.000000)">
                                    <path d="M3.5,0 L6.5,0 L7.415,1 L9,1 C9.55,1 10,1.45 10,2 L10,8 C10,8.55 9.55,9 9,9 L1,9 C0.45,9 0,8.55 0,8 L0,2 C0,1.45 0.45,1 1,1 L2.585,1 L3.5,0 Z M5,7.5 C6.38,7.5 7.5,6.38 7.5,5 C7.5,3.62 6.38,2.5 5,2.5 C3.62,2.5 2.5,3.62 2.5,5 C2.5,6.38 3.62,7.5 5,7.5 Z M5.00000012,6.60000014 C4.11634451,6.60000014 3.4000001,5.88365573 3.4000001,5.00000012 C3.4000001,4.11634451 4.11634451,3.4000001 5.00000012,3.4000001 C5.88365573,3.4000001 6.60000014,4.11634451 6.60000014,5.00000012 C6.60000014,5.88365573 5.88365573,6.60000014 5.00000012,6.60000014 Z" id="Combined-Shape"></path>
                                </g>
                            </g>
                        </g>
                    </g>
                </g>
            </g>
        </g>
    </g>
</svg>