<?xml version="1.0" encoding="utf-8"?>
<!-- Generator: Adobe Illustrator 23.0.1, SVG Export Plug-In . SVG Version: 6.00 Build 0)  -->
<svg version="1.1" id="Camada_1" xmlns="http://www.w3.org/2000/svg" xmlns:xlink="http://www.w3.org/1999/xlink" x="0px" y="0px"
	 viewBox="0 0 41 35" style="enable-background:new 0 0 41 35;" xml:space="preserve">
<style type="text/css">
	.st0{fill:#B7DFF7;}
	.st1{fill:#58CFF6;}
	.st2{fill:#6FBBED;}
	.st3{fill:#5D9CD4;}
	.st4{fill:#ABD1EF;}
	.st5{fill:#72A5D7;}
	.st6{fill:#009DDF;}
	.st7{fill-rule:evenodd;clip-rule:evenodd;fill:#73C2FF;stroke:#FFFFFF;stroke-miterlimit:10;}
	.st8{fill:#FFFFFF;}
</style>
<g>
	<polygon class="st0" points="9.7,3 2.2,13.3 8,13.1 	"/>
	<g>
		<polygon class="st1" points="19.9,1.2 8,13 8,13.1 31.6,13 		"/>
		<polygon class="st1" points="9.8,2.9 8,13 19.8,1.2 		"/>
	</g>
	<polygon class="st2" points="29.9,2.9 19.9,1.2 31.7,13 	"/>
	<polygon class="st3" points="29.9,3 37.5,13.3 31.7,13.1 	"/>
	<polygon class="st4" points="2.2,13.3 19.8,33.8 7.9,13 	"/>
	<polygon class="st5" points="37.6,13.3 19.9,33.8 31.8,13 	"/>
	<polygon class="st6" points="7.9,13 31.7,13 19.9,33.8 	"/>
</g>
<g transform="translate(24 17)">
	<circle class="st7" cx="9.3" cy="6.3" r="6.5"/>
	<path class="st8" d="M8.4,3.3v2.1h-2v1.2h2v2.1h1.2V6.6h2V5.4h-2V3.3L8.4,3.3z"/>
</g>
</svg>
