<?xml version="1.0" encoding="utf-8"?>
<!-- Generator: Adobe Illustrator 23.0.1, SVG Export Plug-In . SVG Version: 6.00 Build 0)  -->
<svg version="1.1" id="Camada_1" xmlns="http://www.w3.org/2000/svg" xmlns:xlink="http://www.w3.org/1999/xlink" x="0px" y="0px"
	 viewBox="0 0 30 30" style="enable-background:new 0 0 30 30;" xml:space="preserve">
<style type="text/css">
	.st0{fill:#FFFFFF;}
	.st1{fill-rule:evenodd;clip-rule:evenodd;fill:#E52443;}
	.st2{enable-background:new    ;}
</style>
<g id="Symbol_7_1" transform="translate(-437 -180)">
	<circle id="Ellipse_18" class="st0" cx="452" cy="195" r="15"/>
</g>
<g>
	<g>
		<g>
			<g>
				<path class="st1" d="M7,15c0-1.2,0-2.5,0-3.7c0-0.6,0.2-1,0.7-1.3c2.1-1.2,4.3-2.5,6.4-3.7c0.5-0.3,1-0.3,1.6,0
					c2.2,1.3,4.3,2.5,6.5,3.8c0.5,0.3,0.8,0.7,0.8,1.3c0,2.5,0,5,0,7.4c0,0.6-0.3,1-0.8,1.3c-2.2,1.2-4.3,2.5-6.4,3.7
					c-0.5,0.3-1,0.3-1.6,0c-2.1-1.2-4.2-2.4-6.3-3.6C7.3,19.8,7,19.4,7,18.7C7,17.5,7,16.2,7,15z"/>
			</g>
		</g>
	</g>
	<g class="st2">
		<path class="st0" d="M18.6,11v7.7h-2.6L14.4,16c-0.3-0.5-0.5-0.9-0.7-1.3c0,0.9,0,1.8,0,2.8v1.3h-2.4V11h2.6l1.6,2.8
			c0.2,0.4,0.5,0.9,0.8,1.5c0-1,0-1.9,0-2.9V11H18.6z"/>
	</g>
</g>
</svg>
