<svg xmlns="http://www.w3.org/2000/svg" xmlns:xlink="http://www.w3.org/1999/xlink"><symbol viewBox="0 0 21 16" id="green-check" xmlns="http://www.w3.org/2000/svg"><path fill="#3CC4A6" d="M0 8.55l2.25-2.925 5.85 4.95L17.55 0l2.7 2.475-11.925 13.05z"/></symbol><symbol viewBox="0 0 13 8" id="next" xmlns="http://www.w3.org/2000/svg"><path fill="#FFF" d="M.558 3.442h10.43L8.5.952a.558.558 0 11.789-.788l3.442 3.441a.558.558 0 010 .79L9.289 7.837a.556.556 0 01-.79 0 .558.558 0 010-.79l2.49-2.489H.559a.558.558 0 010-1.116z"/></symbol><symbol viewBox="0 0 23 18" id="onboarding-email" xmlns="http://www.w3.org/2000/svg"><path fill-rule="evenodd" d="M23 16.5c0 .83-.64 1.5-1.44 1.5H1.44C.64 18 0 17.33 0 16.5v-15C0 .67.64 0 1.44 0h20.12c.8 0 1.44.67 1.44 1.5v15zM12 9.34a.74.74 0 01-1 0L1.8 1.1a.54.54 0 00-.73.02c-.2.2-.2 1.96 0 2.14l9.42 8.5c.54.5 1.53.5 2.08 0l9.34-8.5s.2-1.96 0-2.15a.54.54 0 00-.73 0L12 9.34z"/></symbol><symbol viewBox="0 0 17 17" id="onboarding-error-icon" xmlns="http://www.w3.org/2000/svg"><path d="M8.438 0a8.438 8.438 0 100 16.875A8.438 8.438 0 008.438 0zm-.976 9.08V5.216a.975.975 0 011.95 0v3.862a.975.975 0 01-1.95 0zm.976 4.098a1.172 1.172 0 110-2.344 1.172 1.172 0 010 2.344z"/></symbol><symbol viewBox="0 0 17 17" id="onboarding-info" xmlns="http://www.w3.org/2000/svg"><path fill="#FFF" d="M8.44 0a8.44 8.44 0 100 16.88A8.44 8.44 0 008.44 0zm-.98 12.08V8.22a.97.97 0 011.95 0v3.86a.97.97 0 01-1.94 0zm.98-5.9a1.17 1.17 0 110-2.35 1.17 1.17 0 010 2.35z"/></symbol><symbol viewBox="0 0 16 24" id="onboarding-location" xmlns="http://www.w3.org/2000/svg"><path fill="#FFF" fill-rule="evenodd" d="M15.62 5.85c-.08-.3-.25-.64-.37-.94C13.75 1.3 10.5 0 7.9 0 4.37 0 .5 2.38 0 7.3v1c0 .04 0 .42.03.6.3 2.34 2.12 4.83 3.48 7.17 1.48 2.5 3 4.98 4.5 7.44.93-1.6 1.86-3.23 2.77-4.8.24-.45.53-.9.78-1.35.16-.3.48-.6.62-.86C13.64 13.77 16 11.03 16 8.33v-1.1c0-.3-.36-1.32-.38-1.4zM7.96 10.9c-1.04 0-2.16-.53-2.72-1.97-.08-.23-.08-.7-.08-.74v-.65c0-1.84 1.54-2.68 2.9-2.68 1.64 0 2.9 1.34 2.9 3a3.02 3.02 0 01-3 3.02z"/></symbol><symbol viewBox="0 0 19 23" id="onboarding-password" xmlns="http://www.w3.org/2000/svg"><path d="M17.3 8.88h-1.36v-2.2C15.94 3 13.04 0 9.5 0S3.06 2.98 3.06 6.65v2.23H1.7c-.97.2-1.7 1.1-1.7 2.17v9.72C0 22 .96 23 2.16 23h14.68c1.2 0 2.16-1 2.16-2.23v-9.72c0-1.07-.72-1.97-1.7-2.17zM6.04 8.45V6.67c0-2 1.54-3.6 3.46-3.6s3.46 1.6 3.46 3.58v2.23H6.04v-.43zm5.2 9.06c0 .76-.63 1.37-1.4 1.37-.78 0-1.4-.6-1.4-1.36v-3.08c0-.76.62-1.36 1.4-1.36.4 0 .73.16.98.4.26.25.42.6.42.98v3.07z"/></symbol><symbol viewBox="0 0 34 23" id="onboarding-password-closed" xmlns="http://www.w3.org/2000/svg"><path d="M34 9.493a21.109 21.109 0 01-1.996 2.694l1.601 3.294c.354.731.163 1.604-.543 2.078-.217.128-.479.221-.73.221-.503 0-.918-.245-1.194-.692l-.078-.14-1.26-2.594a19.764 19.764 0 01-2.12 1.555l.979 2.785c.37.838-.134 1.704-.952 1.974a.971.971 0 01-.216.077l-.113.02-.078.01-.154.005a1.626 1.626 0 01-1.473-.899l-.058-.132-.853-2.31c-.971.41-1.969.738-2.982.986v2.86c0 .792-.492 1.495-1.28 1.495-.742 0-1.221-.622-1.275-1.356l-.005-.138v-2.407a20.069 20.069 0 01-3.44.083v2.324c0 .791-.492 1.494-1.28 1.494-.742 0-1.221-.622-1.275-1.356l-.005-.138v-2.648a19.921 19.921 0 01-3.134-.875L9.374 19.7c-.171.67-.846 1.08-1.545 1.08a.805.805 0 01-.23-.027l-.094-.025h-.06l-.13-.048c-.755-.276-1.23-1.03-1.056-1.8l.04-.143.861-2.335a19.83 19.83 0 01-2.958-2.06L2.89 17.034a1.43 1.43 0 01-1.23.745c-.251 0-.514-.093-.73-.22l-.087-.06a1.669 1.669 0 01-.457-2.023l1.608-3.302A21.213 21.213 0 010 9.493c7.97-12.677 26.072-12.638 34 0zM4.046 9.218l-.226.275.23.279c6.855 8.174 19.44 8.08 26.135-.277-6.701-8.34-19.289-8.441-26.139-.277z" fill-rule="nonzero"/></symbol><symbol viewBox="0 0 34 20" id="onboarding-password-open" xmlns="http://www.w3.org/2000/svg"><path fill-rule="evenodd" d="M0 9.992c7.97 13.344 26.072 13.344 34 0C26.072-3.31 7.97-3.35 0 9.992zm17.17 5.395c-3.35 0-6.063-2.635-6.063-5.889 0-3.253 2.713-5.89 6.063-5.89 3.349 0 6.062 2.637 6.062 5.89 0 3.254-2.713 5.89-6.062 5.89zM3.646 9.992a15.91 15.91 0 015.638-5.024c-2.12 3.418-1.61 7.784 1.23 10.666-2.756-1.194-5.172-3.13-6.868-5.642zm20.476 5.395c2.501-2.8 2.968-6.877 1.145-10.13a15.773 15.773 0 015.087 4.735c-1.568 2.348-3.73 4.16-6.232 5.395zm-4.536-5.971c0 1.359-1.145 2.47-2.586 2.47-1.399 0-2.544-1.111-2.544-2.47 0-1.4 1.145-2.513 2.544-2.513 1.441 0 2.586 1.112 2.586 2.513z"/></symbol><symbol viewBox="0 0 24 23" id="onboarding-username" xmlns="http://www.w3.org/2000/svg"><path d="M11.96 22.94c-2.76 0-5.53-.02-8.3 0-1.53.04-2.7-.52-3.35-1.93-.64-1.42-.2-2.7.8-3.8 1.68-1.85 3.87-2.87 6.17-3.67 1.78-.63 1.87-.9.74-2.34-1.66-2.15-2.2-4.53-1.45-7.16C7.35 1.3 9.83-.34 12.6 0c2.96.35 4.93 2.5 5.16 5.58.16 2.22-.55 4.15-1.96 5.84-.87 1.06-.7 1.45.54 2a55.78 55.78 0 015.23 2.6c.7.4 1.27 1.1 1.77 1.78.8 1.07.88 2.27.2 3.46-.63 1.14-1.62 1.68-2.93 1.68a1440.48 1440.48 0 00-8.64 0z"/></symbol></svg>