<?xml version="1.0" encoding="utf-8"?>
<!-- Generator: Adobe Illustrator 23.0.1, SVG Export Plug-In . SVG Version: 6.00 Build 0)  -->
<svg version="1.1" id="Camada_1" xmlns="http://www.w3.org/2000/svg" xmlns:xlink="http://www.w3.org/1999/xlink" x="0px" y="0px"
	 viewBox="0 0 30 30" style="enable-background:new 0 0 30 30;" xml:space="preserve">
<style type="text/css">
	.st0{fill:#FFFFFF;}
	.st1{fill:url(#SVGID_1_);}
	.st2{opacity:0.14;fill:#FFFFFF;}
	.st3{fill:#EFDA09;}
</style>
<g id="Symbol_7_1" transform="translate(-437 -180)">
	<circle id="Ellipse_18" class="st0" cx="452" cy="195" r="15"/>
</g>
<g>
	<linearGradient id="SVGID_1_" gradientUnits="userSpaceOnUse" x1="25.4943" y1="25.4943" x2="4.5057" y2="4.5056">
		<stop  offset="0" style="stop-color:#892CDF"/>
		<stop  offset="0.3436" style="stop-color:#5920BC"/>
		<stop  offset="0.7039" style="stop-color:#48168E"/>
		<stop  offset="0.9944" style="stop-color:#48168E"/>
	</linearGradient>
	<circle class="st1" cx="15" cy="15" r="14.8"/>
	<circle class="st2" cx="15" cy="15" r="14.8"/>
	<circle class="st2" cx="14.9" cy="15.1" r="11.2"/>
	<path class="st3" d="M9.7,22.3v-9.4c0,0,0.1-2.2,1.9-3.8s3.8-1.4,3.8-1.4s1.8-0.1,3.5,1.4s1.8,3.5,1.8,3.5v3.6h-5.4v2.4l-1.9,1.8
		v-6.1h5.4v-1.6c0,0-0.4-2.9-3.5-3.2s-3.8,3.1-3.8,3.1v1.7v6.1h2l1.9,1.9H9.7z"/>
</g>
</svg>
