<svg xmlns="http://www.w3.org/2000/svg" xmlns:xlink="http://www.w3.org/1999/xlink" width="96" height="179" viewBox="0 0 96 179"><svg version="1" width="15" height="9" viewBox="0 0 15 9" id="arrow-down" y="0"><path fill="#fff" stroke="#979797" d="M8 8L1 0h13L8 8z"/><path fill="#fff" d="M0-1h16v2H0z"/></svg><svg width="14" height="13" viewBox="0 0 14 13" version="1" id="comment" y="9"><path d="M1 2V1h12V0H1v1H0v7h1V2zm11 6H6l-2 2V8H1v1h2v3l4-3h6V8h-1zm1-7v7h1V1h-1z" fill="#999"/></svg><svg width="14" height="13" viewBox="0 0 14 13" version="1" id="comment-active" y="22"><path d="M1 2V1h12V0H1v1H0v7h1V2zm11 6H6l-2 2V8H1v1h2v3l4-3h6V8h-1zm1-7v7h1V1h-1z" fill="#fff"/></svg><svg width="17" height="17" viewBox="0 0 17 17" id="comment-block" y="35"><g fill="#999"><path d="M14.994 12.787l-.005-.798-.8-.006zM15.008 10.863l-.013 1.116.996-.005V5l-.97-.01-.043.785zM14 4.983l.977-.007L14.964 4H6.207l.983.983zM13.76 12.975h.008l-.99-.99h-.008L5.768 4.982h.008L4.793 4h-.008L1.507.722.8 1.43 3.37 4h-.385l.01.98L2 5v6.975l.98.01-.018-1.108V5.775L2.938 5l1.05-.017h.367l7 7h-2.97l-2.397 1.99.006-1.99H3.986l-1.005.005.005.987h2.04L5 16.22l3.916-3.245h3.43l3.303 3.303.706-.707z"/></g></svg><svg width="14" height="12" viewBox="0 0 14 12" id="like" y="52"><path d="M9.787 0c-1.503 0-2.68 1.847-3.23 2.577C5.942 1.837 4.74.013 3.324 0 1.32-.02 0 1.405 0 3.31c0 3.645 2.517 4.36 6.556 8.4 4.04-4.04 6.484-4.587 6.494-8.338C13.055 1.442 11.914 0 9.787 0zm-3.25 10.46C3.043 6.965.985 6.39.985 3.593c0-1.398.65-2.67 2.03-2.67 1.08 0 2.97 2.287 3.563 3 .52-.716 2.258-3 3.493-3 1.334 0 2 1.27 2 2.67-.002 2.797-2.036 3.372-5.532 6.867z" fill="#999"/></svg><svg width="14" height="12" viewBox="0 0 14 12" id="like-active" y="64"><path d="M9.787 0c-1.503 0-2.68 1.847-3.23 2.577C5.942 1.837 4.74.013 3.324 0 1.32-.02 0 1.405 0 3.31c0 3.645 2.517 4.36 6.556 8.4 4.04-4.04 6.484-4.587 6.494-8.338C13.055 1.442 11.914 0 9.787 0zm-3.25 10.46C3.043 6.965.985 6.39.985 3.593c0-1.398.65-2.67 2.03-2.67 1.08 0 2.97 2.287 3.563 3 .52-.716 2.258-3 3.493-3 1.334 0 2 1.27 2 2.67-.002 2.797-2.036 3.372-5.532 6.867z" fill="#fff"/></svg><svg width="11" height="7" viewBox="0 0 11 7" id="more" y="76"><title>Rectangle 205</title><desc>Created with Sketch.</desc><path d="M6.207 5.742L5.5 6.45.55 1.5 1.966.086 5.5 3.62 9.035.087 10.45 1.5 6.206 5.742z" fill="#999"/></svg><svg width="96" height="96" viewBox="0 0 96 96" id="play_video" y="83"><defs><filter x="-50%" y="-50%" width="200%" height="200%" filterUnits="objectBoundingBox" id="ha"><feOffset dy="2" in="SourceAlpha" result="shadowOffsetOuter1"/><feGaussianBlur stdDeviation="4" in="shadowOffsetOuter1" result="shadowBlurOuter1"/><feColorMatrix values="0 0 0 0 0 0 0 0 0 0 0 0 0 0 0 0 0 0 0.35 0" in="shadowBlurOuter1" result="shadowMatrixOuter1"/><feMerge><feMergeNode in="shadowMatrixOuter1"/><feMergeNode in="SourceGraphic"/></feMerge></filter></defs><path d="M48 86c22.09 0 40-17.91 40-40S70.09 6 48 6 8 23.91 8 46s17.91 40 40 40zm16-40L38 64V28l26 18z" fill-opacity=".6" fill="#fff" filter="url(#ha)"/></svg></svg>