<svg xmlns:xlink="http://www.w3.org/1999/xlink" xmlns="http://www.w3.org/2000/svg" height="20" width="20"><defs><symbol viewBox="0 0 20 22" id="common-transferencia" xmlns="http://www.w3.org/2000/svg"><defs><path id="bma" d="M0 0h20v11H0z"></path></defs><g fill="none" fill-rule="evenodd"><g transform="translate(0 11)"><mask id="bmb" fill="#fff"><use xlink:href="#bma"></use></mask><path fill="#666" d="M5.72 8.316c0-.559.183-.694.703-.686 1.645.028 10.118-.012 11.763.021.6.013.78-.206.758-.783a34.154 34.154 0 01.004-2.753c.025-.601-.214-.774-.784-.763-1.584.029-9.996.01-11.58.01-.855 0-.855 0-.855-.887V1.266c-.28.226-.332.29-.435.38C3.997 2.788 2.707 3.94 1.408 5.081c-.292.256-.42.48-.065.791C2.72 7.081 4.086 8.3 5.46 9.511c.04.035.138.157.27.101 0-.488-.008-.798-.008-1.296m14.267-4.51c.016 1.12.016 2.242 0 3.363-.012 1.033-.517 1.52-1.554 1.525-1.42.005-9.668.013-11.089-.006-.416-.005-.601.125-.568.558.021.283.018.574-.018.855-.109.864-.809 1.165-1.49.638-.337-.26-.646-.558-.965-.84C3.04 8.778 1.77 7.668.522 6.533c-.641-.582-.708-1.389-.11-1.938A215.168 215.168 0 015.29.263c.623-.537 1.35-.211 1.466.61.042.302.044.613.02.917-.032.421.24.536.533.536.75 0 1.502-.006 2.253-.005.71 0 8.247-.007 8.958.003.95.013 1.455.513 1.468 1.482z" mask="url(#bmb)"></path></g><path fill="#666" d="M14.28 8.316c0-.559-.183-.694-.703-.686-1.645.028-10.118-.012-11.763.021-.6.013-.78-.206-.758-.783.035-.916.035-1.837-.004-2.753-.025-.601.214-.774.784-.763 1.584.029 9.996.01 11.58.01.855 0 .855 0 .855-.887V1.266c.28.226.332.29.435.38 1.297 1.142 2.587 2.294 3.886 3.435.292.256.42.48.065.791C17.28 7.081 15.914 8.3 14.54 9.511c-.04.035-.138.157-.27.101 0-.488.008-.798.008-1.296M.011 3.806c-.016 1.12-.016 2.242 0 3.363.012 1.033.517 1.52 1.554 1.525 1.42.005 9.668.013 11.089-.006.416-.005.601.125.568.558-.021.283-.018.574.018.855.109.864.809 1.165 1.49.638.337-.26.646-.558.965-.84 1.265-1.121 2.535-2.231 3.783-3.366.641-.582.708-1.389.11-1.938A215.168 215.168 0 0014.71.263c-.623-.537-1.35-.211-1.466.61a4.26 4.26 0 00-.02.917c.032.421-.24.536-.533.536-.75 0-1.502-.006-2.253-.005-.71 0-8.247-.007-8.958.003-.95.013-1.455.513-1.468 1.482z"></path></g></symbol></defs>
<use xlink:href="#common-transferencia" fill="#666666"></use>
</svg>