<?xml version="1.0" encoding="utf-8"?>
<!-- Generator: Adobe Illustrator 23.0.1, SVG Export Plug-In . SVG Version: 6.00 Build 0)  -->
<svg version="1.1" id="Camada_1" xmlns="http://www.w3.org/2000/svg" xmlns:xlink="http://www.w3.org/1999/xlink" x="0px" y="0px"
	 viewBox="0 0 30 30" style="enable-background:new 0 0 30 30;" xml:space="preserve">
<style type="text/css">
	.st0{fill:#FFFFFF;}
	.st1{fill:#2B94FB;}
</style>
<g id="Symbol_6_1" transform="translate(-437 -215)">
	<circle id="Ellipse_18" class="st0" cx="452" cy="230" r="15"/>
</g>
<g>
	<circle class="st1" cx="15" cy="15" r="9"/>
	<g>
		<path class="st0" d="M19.1,10.7l-6.9,6.9c-0.2,0.2-0.2,0.4,0,0.6l1.1,1.1c0.2,0.2,0.4,0.2,0.6,0l6.9-6.9c0.2-0.2,0.2-0.4,0-0.6
			l-1.1-1.1C19.5,10.6,19.2,10.6,19.1,10.7z"/>
		<path class="st0" d="M9.3,15.3l3,3l1.4-1.4c0.1-0.1,0.1-0.3,0-0.4l-2.8-2.8c-0.1-0.1-0.3-0.1-0.4,0l-1.2,1.2
			C9.1,15,9.1,15.2,9.3,15.3z"/>
	</g>
</g>
</svg>
