<?xml version="1.0" encoding="utf-8"?>
<!-- Generator: Adobe Illustrator 23.0.1, SVG Export Plug-In . SVG Version: 6.00 Build 0)  -->
<svg version="1.1" id="Camada_1" xmlns="http://www.w3.org/2000/svg" xmlns:xlink="http://www.w3.org/1999/xlink" x="0px" y="0px"
	 viewBox="0 0 16 16" style="enable-background:new 0 0 16 16;" xml:space="preserve">
<style type="text/css">
	.st0{opacity:0.3;}
	.st1{fill:#FFFFFF;}
</style>
<g>
	<path class="st0" d="M213.6,52.3c0.5-0.7,0.9-1.4,1.4-2c6-7.4,6.3-15-0.8-21.5c-6-5.6-13.1-10.3-20.2-14.5
		c-8-4.7-16.9-7.9-24.9-12.7c-16.9-10-21.3-33.4-9.6-49.2c2.1-2.9,5-5.3,7.5-8c0.3,0.3,0.7,0.6,1,0.8c-1.1,1.5-2.2,3-3.2,4.5
		c-3.1,4.5-3.5,9.2-0.8,14.2c4.6,8.5,12.5,13.3,20.6,17.7c8.4,4.6,17.1,8.7,25.7,12.9c23.3,11.4,23.3,42.3,7,56.3
		c-0.9,0.8-1.9,1.4-2.9,2.2C214,52.8,213.8,52.6,213.6,52.3z"/>
	<path class="st0" d="M208.5-59.8c14.4,2.3,24.7,22.6,17.6,35.1c-2.9,5-7.4,7.5-13.1,7.2c-5.4-0.3-9.5-2.9-11.6-8.1
		c-2.3-5.6-0.7-10.3,3.2-14.5c0.4-0.4,0.8-0.8,1.2-1.2C213-48.2,213.5-51.6,208.5-59.8z"/>
	<path class="st1" d="M173.2,58.2c-14.4-4-23.2-19.3-19.1-32.3c2-6.4,7.7-10.6,14-10.3c6.4,0.3,11.5,4.4,12.7,10.6
		c1.1,5.7-1.4,10-5.5,13.6C168.5,45.9,167.8,50.5,173.2,58.2z"/>
</g>
<g>
	<path d="M10.7,14.3c0.1-0.1,0.1-0.2,0.2-0.2c0.7-0.9,0.7-1.8-0.1-2.6c-0.7-0.7-1.6-1.2-2.4-1.7c-1-0.6-2-0.9-3-1.5
		c-2-1.2-2.5-4-1.1-5.9c0.3-0.3,0.6-0.6,0.9-0.9c0,0,0.1,0.1,0.1,0.1C5.2,1.8,5,1.9,4.9,2.1C4.5,2.7,4.5,3.2,4.8,3.8
		c0.5,1,1.5,1.6,2.4,2.1c1,0.5,2,1,3.1,1.5c2.8,1.4,2.8,5,0.8,6.7C11,14.2,10.9,14.3,10.7,14.3C10.8,14.4,10.7,14.3,10.7,14.3z"/>
	<path d="M10.1,1c1.7,0.3,2.9,2.7,2.1,4.2C11.9,5.8,11.3,6,10.6,6c-0.6,0-1.1-0.3-1.4-1C9,4.4,9.2,3.8,9.6,3.3c0,0,0.1-0.1,0.1-0.1
		C10.6,2.4,10.7,2,10.1,1z"/>
	<path d="M5.9,15c-1.7-0.5-2.8-2.3-2.3-3.8c0.2-0.8,0.9-1.3,1.7-1.2c0.8,0,1.4,0.5,1.5,1.3c0.1,0.7-0.2,1.2-0.7,1.6
		C5.4,13.6,5.3,14.1,5.9,15z"/>
</g>
</svg>
