<?xml version="1.0" encoding="utf-8"?>
<!-- Generator: Adobe Illustrator 23.0.1, SVG Export Plug-In . SVG Version: 6.00 Build 0)  -->
<svg version="1.1" id="Camada_1" xmlns="http://www.w3.org/2000/svg" xmlns:xlink="http://www.w3.org/1999/xlink" x="0px" y="0px"
	 viewBox="0 0 30 26" style="enable-background:new 0 0 30 26;" xml:space="preserve">
<style type="text/css">
	.st0{opacity:0.19;}
	.st1{fill-rule:evenodd;clip-rule:evenodd;}
</style>
<g id="ZZVaPY.tif_1_" class="st0">
	<g>
		<path class="st1" d="M28.6,13.9c0,0.5,0.4,0.8,0.5,1.1c0.2,0.7,0,1.3-0.8,1.5c-0.1,0-0.2,0-0.3,0c-0.5,0-1.2,0.2-1.4-0.1
			c-0.3-0.4,0.3-0.8,0.5-1.2c1.5-2.7,2-5.5,0.7-8.4c-2-4.6-6.8-4.6-9.8-2c-0.8,0.7-1.3,1.6-2,2.3c-1,1-2.1,1.9-3.6,2
			c-1,0-1.7-0.5-1.8-1.4c-0.1-1.1,0.5-2,1.6-2.2c1.1-0.2,2.3,0,3.3,0.5C15.6,6,15.8,6.2,16,6c0.2-0.2,0-0.4-0.1-0.6
			c-2.1-2.1-5.2-3.2-7.8-1.6c-1.5,0.9-2.4,2.4-2.9,4c-0.6,2.1-0.4,4.2,0.6,6.2c0.4,0.9,0.4,1.5-0.4,2c0,0,0,0,0,0
			c-0.4,0.3-0.8,0.8-1,1.2c-0.1,0.2-0.3,0.5,0,0.7c0.3,0.2,0.4,0,0.6-0.1c0.5-0.4,1-0.8,1.4-1.3c2.7-2.5,5.9-2.8,9.4-2.1
			c1.5,0.3,2.9,1,4.2,1.8c1.5,0.9,3.1,1.9,4.9,2.1c1.6,0.2,3.1-0.1,4.3-1.2C30.4,16.3,30.1,14.5,28.6,13.9z"/>
		<path class="st1" d="M16.7,23.5c1.5-0.2,2.7-0.9,3.9-1.7c0.8-0.5,1.5-1.2,2.3-1.8c0.4-0.3,0.3-0.5-0.1-0.7
			c-1.7-0.7-3.2-1.7-4.8-2.5c-2.8-1.4-5.8-1.8-8.8-0.4c-1.6,0.7-1.6,0.9-0.4,2.1c1.9,1.9,3.9,3.7,6.4,4.7
			C15.7,23.4,16.2,23.5,16.7,23.5z"/>
		<path class="st1" d="M0,22c1.6-1.1,3.4-1.3,5.2-1.5c0.3,0,0.6-0.1,0.7-0.4c0.1-0.3-0.2-0.4-0.4-0.6c-0.9-0.8-1.9-1.5-2.7-2.5
			c-0.3-0.4-0.5-0.2-0.7,0.1C1.1,18.6,0.6,20.3,0,22z"/>
	</g>
</g>
</svg>
