<?xml version="1.0" encoding="utf-8"?>
<!-- Generator: Adobe Illustrator 23.0.1, SVG Export Plug-In . SVG Version: 6.00 Build 0)  -->
<svg version="1.1" id="Camada_1" xmlns="http://www.w3.org/2000/svg" xmlns:xlink="http://www.w3.org/1999/xlink" x="0px" y="0px"
	 viewBox="0 0 27 32" style="enable-background:new 0 0 27 32;" xml:space="preserve">
<style type="text/css">
	.st0{opacity:0.3;}
	.st1{fill:#FFFFFF;}
</style>
<g>
	<g>
		<path class="st0" d="M19.3,29.5c0.1-0.2,0.2-0.3,0.3-0.5c1.5-1.9,1.6-3.8-0.2-5.5c-1.5-1.4-3.3-2.6-5.1-3.7c-2-1.2-4.3-2-6.3-3.2
			C3.7,14.1,2.6,8.1,5.5,4.1c0.5-0.7,1.3-1.4,1.9-2c0.1,0.1,0.2,0.1,0.3,0.2C7.4,2.7,7.1,3.1,6.9,3.4C6.1,4.6,6,5.8,6.7,7
			c1.2,2.2,3.2,3.4,5.2,4.5c2.1,1.2,4.4,2.2,6.5,3.3c5.9,2.9,5.9,10.8,1.8,14.3c-0.2,0.2-0.5,0.4-0.7,0.5
			C19.4,29.6,19.4,29.6,19.3,29.5z"/>
		<path class="st0" d="M18,1c3.7,0.6,6.3,5.8,4.5,8.9c-0.7,1.3-1.9,1.9-3.3,1.8c-1.4-0.1-2.4-0.7-3-2.1C15.6,8.3,16,7.1,17,6
			c0.1-0.1,0.2-0.2,0.3-0.3C19.2,4,19.3,3.1,18,1z"/>
		<path class="st1" d="M9,31c-3.6-1-5.9-4.9-4.8-8.2c0.5-1.6,1.9-2.7,3.6-2.6c1.6,0.1,2.9,1.1,3.2,2.7c0.3,1.4-0.4,2.5-1.4,3.4
			C7.8,27.9,7.7,29,9,31z"/>
	</g>
</g>
</svg>
