<svg xmlns="http://www.w3.org/2000/svg" xmlns:xlink="http://www.w3.org/1999/xlink" width="197" height="197" viewBox="0 0 197 197"><defs><mask id="d" width="197" height="197" x="-3" y="-3"><path fill="#fff" d="M-3-3h197v197H-3z"/><use xlink:href="#a"/></mask><mask id="f" width="114.6" height="140.067" x="0" y="0" fill="#fff"><use xlink:href="#b"/></mask><mask id="h" width="89.133" height="114.6" x="0" y="0" fill="#fff"><use xlink:href="#c"/></mask><rect id="b" width="114.6" height="140.067" x="39.473" y="75.127" rx="12"/><rect id="c" width="89.133" height="114.6" x="52.207" y="87.86" rx="8"/><linearGradient id="g" x1="50%" x2="50%" y1="-534.383%" y2="100%"><stop offset="0%" stop-opacity="0"/><stop offset="100%" stop-color="#FFF"/></linearGradient><circle id="a" cx="95.5" cy="95.5" r="95.5"/></defs><g fill="none" fill-rule="evenodd" transform="translate(3 3)"><mask id="e" fill="#fff"><use xlink:href="#a"/></mask><use fill="#EFF3F5" fill-opacity=".63" xlink:href="#a"/><use stroke="#E5E5E5" stroke-width="6" mask="url(#d)" xlink:href="#a"/><g fill="#FFF" stroke="#DBD8D8" stroke-width="6" mask="url(#e)"><use mask="url(#f)" xlink:href="#b"/></g><g fill="url(#g)" fill-opacity=".5" stroke="#DBD8D8" stroke-width="6" mask="url(#e)"><use mask="url(#h)" xlink:href="#c"/></g><g fill="#7F7979" mask="url(#e)"><path d="M77.1 130.58l5.348-5.348 5.348 5.348 2.674-2.674-5.348-5.348 5.348-5.348-2.674-2.674-5.348 5.348-5.348-5.348-2.674 2.674 5.348 5.348-5.348 5.348zm28.65 0l5.348-5.348 5.348 5.348 2.674-2.674-5.348-5.348 5.348-5.348-2.674-2.674-5.348 5.348-5.348-5.348-2.674 2.674 5.348 5.348-5.348 5.348zm-22.347 15.853h9.55v.955a8.56 8.56 0 008.595 8.595 8.56 8.56 0 008.595-8.595v-4.775h-26.74v3.82zm22.92.955c0 2.674-2.1 4.775-4.775 4.775-2.674 0-4.775-2.1-4.775-4.775v-.955h9.55v.955z"/></g></g></svg>