<!-- Generator: Adobe Illustrator 23.0.1, SVG Export Plug-In  -->
<svg version="1.1" xmlns="http://www.w3.org/2000/svg" xmlns:xlink="http://www.w3.org/1999/xlink" x="0px" y="0px"
	 width="171.65px" height="56.76px" viewBox="0 0 171.65 56.76" style="enable-background:new 0 0 171.65 56.76;"
	 xml:space="preserve">
<style type="text/css">
	.st0{fill:#E4214F;}
</style>
<defs>
</defs>
<g>
	<g>
		<path d="M28.73,53.09c0.21-0.31,0.41-0.64,0.64-0.94c2.83-3.52,2.97-7.09-0.36-10.19c-2.86-2.66-6.2-4.88-9.58-6.87
			c-3.79-2.24-8-3.76-11.79-6.01c-7.98-4.75-10.08-15.81-4.57-23.3c1.02-1.38,2.35-2.53,3.54-3.78c0.16,0.13,0.32,0.26,0.47,0.4
			C6.58,3.1,6.06,3.81,5.56,4.54c-1.48,2.15-1.63,4.38-0.39,6.7c2.17,4.05,5.92,6.31,9.74,8.4c3.99,2.18,8.1,4.12,12.19,6.12
			c11.03,5.4,11.04,20.03,3.31,26.67c-0.43,0.37-0.91,0.68-1.37,1.02C28.94,53.33,28.83,53.21,28.73,53.09z"/>
		<path d="M26.32,0c6.84,1.07,11.69,10.71,8.33,16.61c-1.35,2.37-3.5,3.56-6.22,3.43c-2.56-0.13-4.49-1.37-5.5-3.82
			c-1.09-2.64-0.35-4.87,1.52-6.86c0.18-0.19,0.37-0.37,0.56-0.55C28.46,5.51,28.71,3.87,26.32,0z"/>
		<path class="st0" d="M9.6,55.87c-6.8-1.88-10.97-9.12-9.02-15.29c0.96-3.04,3.63-5,6.64-4.88c3.04,0.13,5.44,2.1,6.02,5.02
			c0.53,2.69-0.65,4.71-2.59,6.42C7.37,50.05,7.07,52.22,9.6,55.87z"/>
	</g>
	<g>
		<path class="st0" d="M42.46,26.77c4.77,0,9.46,0,14.21,0c0,0.3,0,0.57,0,0.83c0,4.45,0,8.9,0,13.35c0,0.52,0.02,1.04,0.1,1.55
			c0.11,0.71,0.53,1.05,1.18,1.08c0.7,0.03,1.14-0.28,1.29-1.02c0.09-0.48,0.1-0.98,0.1-1.47c0.01-4.49,0-8.99,0-13.48
			c0-0.26,0-0.53,0-0.83c4.78,0,9.48,0,14.26,0c0,0.26,0,0.5,0,0.74c0,5.24-0.06,10.47,0.01,15.71c0.09,6.76-3.88,11.53-10.43,12.97
			c-4.3,0.94-8.57,0.72-12.75-0.72c-4.88-1.68-7.9-5.73-7.97-10.88c-0.08-5.82-0.03-11.64-0.03-17.46
			C42.43,27.02,42.45,26.92,42.46,26.77z"/>
		<path class="st0" d="M94.45,43.48c-0.98,0-1.9,0-2.87,0c0-0.91,0-1.79,0-2.72c5.43,0,10.85,0,16.43,0
			c-0.09,1.22-0.12,2.43-0.29,3.62c-0.62,4.31-2.55,7.82-6.41,10.08c-2.01,1.17-4.2,1.78-6.5,2.04c-4.16,0.47-8.18,0.05-11.9-2
			c-4.51-2.48-6.93-6.38-7.43-11.48c-0.35-3.49,0.19-6.82,2.03-9.85c2.16-3.56,5.4-5.66,9.38-6.61c4.85-1.16,9.61-0.85,14.1,1.43
			c4.19,2.12,6.36,5.66,6.87,10.28c0.02,0.18,0.02,0.36,0.02,0.54c0,0.04-0.03,0.08-0.07,0.21c-0.19,0-0.41,0-0.63,0
			c-4.09,0-8.18,0-12.27,0.01c-0.41,0-0.69-0.09-0.98-0.41c-1.21-1.3-3.46-1.03-4.51,0.51c-1.08,1.59-0.78,4.16,0.65,5.45
			C91.45,45.79,93.89,45.25,94.45,43.48z"/>
		<path class="st0" d="M171.35,54.95c-1.14-3.19-2.3-6.37-3.42-9.57c-0.08-0.24-0.07-0.67,0.08-0.81c2.42-2.24,3.21-5.03,2.99-8.24
			c-0.31-4.39-2.54-7.3-6.72-8.62c-2.23-0.7-4.53-0.94-6.85-0.96c-5.17-0.04-10.34-0.02-15.51-0.02c-0.17,0-0.34,0.02-0.53,0.04
			c0,9.72,0,19.39,0,29.05c4.69,0,9.33,0,14.02,0c0-1.42,0-2.79,0-4.16c0-1.37,0-2.73,0-4.13c0.29,0,0.5,0,0.78,0
			c0.64,2.77,1.28,5.54,1.92,8.29c4.54,0,9.02,0,13.54,0C171.53,55.5,171.44,55.22,171.35,54.95z M157.66,39.36
			c-0.52,0.89-1.48,0.32-2.3,0.52c0-1.18,0-2.24,0-3.38c0.82,0.08,1.74-0.32,2.28,0.48C158.12,37.7,158.09,38.61,157.66,39.36z"/>
		<path class="st0" d="M132.98,26.77c-6.46,0-12.86,0-19.28,0c-2.32,9.7-4.63,19.37-6.95,29.07c4.74,0,9.38,0,14.04,0
			c0.1-0.72,0.2-1.4,0.3-2.1c1.53,0,3.03,0,4.55,0c0.11,0.72,0.21,1.4,0.32,2.11c4.67,0,9.31,0,14,0
			C137.62,46.12,135.3,36.44,132.98,26.77z M122.25,45.04c0.34-2.6,0.67-5.16,1-7.73c0.07,0,0.14,0.01,0.21,0.01
			c0.34,2.56,0.68,5.12,1.02,7.72C123.72,45.04,123.04,45.04,122.25,45.04z"/>
	</g>
	<g>
		<path d="M59.61,5.65c2.49,0,4.94,0,7.44,0c0,0.16,0,0.29,0,0.43c0,2.33,0,4.66,0,6.99c0,0.26,0.01,0.52,0.04,0.77
			c0.06,0.41,0.28,0.6,0.65,0.61c0.37,0,0.6-0.18,0.66-0.59c0.04-0.24,0.04-0.49,0.04-0.74c0-2.34,0-4.68,0-7.03
			c0-0.14,0-0.28,0-0.44c2.5,0,4.96,0,7.47,0c0,0.13,0,0.25,0,0.38c0,2.74-0.03,5.48,0.01,8.23c0.05,3.55-2.04,6.04-5.45,6.79
			c-2.28,0.5-4.54,0.38-6.74-0.39c-2.49-0.87-4.08-3-4.11-5.64c-0.04-3.07-0.02-6.14-0.02-9.21C59.6,5.76,59.6,5.72,59.61,5.65z"/>
		<path d="M88.46,15.05c-1.2,0-2.37,0-3.56,0c0,0.31,0,0.57,0,0.88c1.53,0,3.07,0,4.63,0c0,1.66,0,3.29,0,4.94
			c-4.02,0-8.04,0-12.09,0c0-5.06,0-10.13,0-15.21c4,0,7.99,0,12.01,0c0,1.62,0,3.24,0,4.9c-1.51,0-3.02,0-4.55,0
			c0,0.32,0,0.59,0,0.91c1.19,0,2.36,0,3.55,0C88.46,12.67,88.46,13.83,88.46,15.05z"/>
		<path d="M57.39,18.42c-0.14-0.16-0.14-0.28-0.02-0.46c0.2-0.3,0.39-0.62,0.54-0.95c0.79-1.75,0.93-3.59,0.63-5.46
			C58.1,8.92,56.69,7,54.19,5.98c-2.36-0.96-4.8-1.02-7.24-0.45c-2.73,0.64-4.66,2.23-5.47,4.99c-0.19,0.66-0.26,1.36-0.39,2.03
			c0,0.47,0,0.94,0,1.41c0.05,0.3,0.09,0.6,0.14,0.9c0.46,2.83,1.99,4.81,4.69,5.8c2.01,0.74,4.09,0.8,6.19,0.45
			c0.36-0.06,0.59-0.02,0.84,0.28c0.58,0.71,1.2,1.39,1.81,2.07c0.14,0.15,0.27,0.31,0.42,0.47c1.38-1.09,2.72-2.15,4.08-3.22
			C58.62,19.93,58.01,19.17,57.39,18.42z M49.85,14.44c-0.65-0.01-1.15-0.54-1.14-1.23c0.01-0.68,0.53-1.21,1.17-1.2
			c0.64,0.01,1.16,0.57,1.15,1.23C51.03,13.91,50.49,14.45,49.85,14.44z"/>
		<path d="M124.38,10.68c-0.6-2.24-1.99-3.8-4.13-4.7c-1.39-0.59-2.85-0.79-4.36-0.86c-0.93,0.12-1.88,0.18-2.79,0.39
			c-2.67,0.6-4.62,2.09-5.52,4.77c-0.51,1.53-0.57,3.1-0.31,4.67c0.44,2.63,1.83,4.58,4.33,5.58c2.8,1.11,5.67,1.1,8.48,0.05
			c2.19-0.82,3.62-2.41,4.25-4.67C124.84,14.17,124.85,12.42,124.38,10.68z M115.91,14.44c-0.65-0.01-1.15-0.54-1.15-1.22
			c0-0.68,0.52-1.21,1.17-1.2c0.64,0.01,1.17,0.56,1.16,1.22C117.08,13.9,116.55,14.44,115.91,14.44z"/>
		<path d="M106.61,20.39c-0.6-1.67-1.2-3.34-1.79-5.01c-0.04-0.12-0.04-0.33,0.04-0.4c1.26-1.16,1.68-2.6,1.58-4.27
			c-0.14-2.31-1.31-3.86-3.51-4.56c-1.35-0.43-2.75-0.52-4.15-0.52c-2.51-0.01-5.01,0-7.52,0c-0.11,0-0.22,0.01-0.33,0.02
			c0,5.1,0,10.15,0,15.22c2.45,0,4.88,0,7.35,0c0-1.46,0-2.9,0-4.32c0.3-0.09,0.41-0.01,0.47,0.27c0.3,1.35,0.62,2.7,0.93,4.06
			c2.36,0,4.7,0,7.09,0C106.71,20.7,106.66,20.54,106.61,20.39z M99.44,12.27c-0.33,0.4-0.78,0.15-1.2,0.22c0-0.6,0-1.16,0-1.76
			c0.43,0.04,0.88-0.15,1.2,0.25C99.65,11.23,99.65,12.02,99.44,12.27z"/>
	</g>
</g>
</svg>
